<svg width="300" height="300" viewBox="0 0 300 300" fill="none" xmlns="http://www.w3.org/2000/svg">
<g clip-path="url(#clip0_2094_31111)">
<path d="M263.79 125.618C265.612 124.117 267.524 122.041 269.261 119.56C273.628 113.324 275.236 106.917 272.857 105.251C272.805 105.215 272.751 105.184 272.696 105.153C273.242 103.24 272.14 100.769 269.873 99.1816C269.251 98.7459 268.594 98.4195 267.937 98.1921C266.637 96.6788 264.859 95.5557 262.745 95.0916C262.712 95.0839 262.675 95.077 262.642 95.0693C262.254 94.9851 261.866 94.9078 261.479 94.8392L246.262 94.8265C235.375 96.627 226.564 101.65 223.422 103.624L223.374 103.656L222.24 104.397L222.196 104.427L222.182 104.437L222.224 104.474L250.364 128.124L256.53 127.315C256.673 127.518 256.843 127.695 257.043 127.835C258.27 128.694 260.321 128.125 262.616 126.515L263.533 126.394L263.79 125.618Z" fill="#5BAAFF"/>
<path d="M209.684 93.9668C209.684 93.9668 236.316 117.027 255.901 129.503C257.778 122.887 249.391 111.437 235.899 102.747C226.513 96.6974 216.932 93.4539 210.201 93.5341C209.861 93.812 209.681 93.965 209.681 93.965L209.684 93.9668Z" fill="#A3CFFF"/>
<path d="M260.898 85.884C223.886 59.4026 192.281 86.3383 192.281 86.3383L250.167 127.015C254.559 130.102 262.828 131.167 266.782 126.682C279.167 112.626 278.697 98.6219 260.898 85.884ZM252.004 125.972C245.737 122.374 228.275 109.456 228.275 109.456C228.275 109.456 259.806 85.1651 270.799 101.419C275.552 108.445 265.818 133.902 252.002 125.97L252.004 125.972Z" fill="url(#paint0_linear_2094_31111)"/>
<path d="M198.09 89.2101L198.041 89.1814L166.77 69.8617L166.056 47.2006L165.497 47.3577L188.274 39.0187C190.527 41.8605 192.538 44.8312 194.318 47.8512C194.519 48.1929 194.714 48.5378 194.9 48.884L199.677 63.3314C201.376 74.2346 199.365 84.1751 198.473 87.7777L198.459 87.8334L198.109 89.1425L198.094 89.1938L198.09 89.2101Z" fill="#5BAAFF"/>
<path d="M198.091 89.2102C198.091 89.2102 166.606 70.9027 147.365 56.4076C152.343 53.2211 165.914 58.0251 179.251 67.9855C188.532 74.9169 195.449 82.6637 198.247 88.6511C198.15 89.0161 198.091 89.2102 198.091 89.2102Z" fill="#A3CFFF"/>
<path d="M194.314 47.8521C186.495 34.5688 174.153 22.2155 156.735 17.6354C142.948 14.0094 121.796 30.5759 135.392 46.0255C147.523 59.8064 198.091 89.2104 198.091 89.2104C198.091 89.2104 205.119 66.204 194.314 47.8521ZM165.632 64.5901C159.953 57.2289 174.474 39.4984 183.983 43.7016C202.039 51.6843 196.996 86.0261 196.996 86.0261C196.996 86.0261 170.697 71.1576 165.632 64.5901Z" fill="url(#paint1_linear_2094_31111)"/>
<path d="M93.974 240.505L11.149 182.51C4.9792 178.19 4.70282 167.939 10.5339 159.611L58.8105 90.665L147.106 152.49L98.8296 221.436C92.9984 229.764 90.8264 238.301 93.974 240.505Z" fill="url(#paint2_linear_2094_31111)"/>
<path d="M198.716 95.7707C194.308 92.6844 188.231 93.7583 185.143 98.1695L147.105 152.493L58.8094 90.6676L94.6108 39.5379C98.9343 33.3633 107.441 31.8598 113.611 36.18L198.716 95.7707Z" fill="url(#paint3_linear_2094_31111)"/>
<path d="M239.09 216.898L190.813 285.844C190.721 285.974 190.632 286.103 190.54 286.233C184.681 294.274 175.16 297.351 169.087 293.099L93.9762 240.506C90.8286 238.302 93.0007 229.766 98.8318 221.438L147.108 152.492L239.092 216.899L239.09 216.898Z" fill="url(#paint4_linear_2094_31111)"/>
<path d="M274.891 165.768L239.09 216.898L147.106 152.49L185.144 98.1667C188.233 93.7555 194.309 92.6816 198.717 95.768L271.548 146.765C277.718 151.085 279.215 159.593 274.891 165.768Z" fill="url(#paint5_linear_2094_31111)"/>
<path fill-rule="evenodd" clip-rule="evenodd" d="M195.623 87.1271L141.558 50.5923C140.41 49.8453 139.142 49.3013 137.808 48.9823L136.333 48.6297C132.772 47.7746 129.016 48.6247 126.165 50.9298L125.768 51.2515C124.337 51.8953 123.025 52.8525 121.943 54.1152C121.837 54.2382 121.733 54.3611 121.629 54.4839C121.525 54.6068 121.421 54.7296 121.315 54.8526L121.308 54.8629C87.3166 94.6046 57.149 137.46 31.2116 182.864C26.9909 190.249 29.1155 199.632 36.0767 204.506L141.591 278.388C148.552 283.263 158.096 282.05 163.592 275.558C197.387 235.656 227.34 192.65 253.059 147.116L253.066 147.105C253.146 146.965 253.226 146.825 253.305 146.685C253.385 146.545 253.465 146.405 253.545 146.264C254.361 144.815 254.812 143.255 254.927 141.689L255.094 141.206C256.285 137.739 255.799 133.919 253.777 130.865L252.942 129.6C252.186 128.456 251.241 127.45 250.146 126.626L197.323 88.3178L197.343 88.2896L196.483 87.7084L195.643 87.0989L195.623 87.1271ZM159.997 71.9181L152.513 77.9886L152.512 77.9956C118.751 117.566 88.7814 160.22 62.9935 205.389L62.6685 206.682C61.6249 210.821 61.9053 215.185 63.4684 219.156L118.456 257.659C122.722 257.77 126.919 256.541 130.452 254.144L131.556 253.397C165.181 213.715 195.012 170.965 220.649 125.706L220.655 125.702L223.8 116.594C224.001 116.012 224.035 115.391 223.901 114.793C223.659 113.726 223.067 112.773 222.217 112.085L194.283 92.6595L194.28 92.6649L193.431 92.0668L192.579 91.4742L192.583 91.4688L164.775 71.8642C163.838 71.2999 162.74 71.0695 161.655 71.2073C161.046 71.2856 160.474 71.5305 159.997 71.9181Z" fill="url(#paint6_linear_2094_31111)"/>
<path d="M192.471 85.0455L192.501 85.067L211.683 99.7054L225.745 94.8261L225.78 95.2061L225.546 79.2854C223.276 78.5704 220.981 78.0371 218.713 77.6519C218.456 77.6097 218.198 77.57 217.943 77.5365L207.966 77.9993C200.883 79.5183 195.26 83.0836 193.26 84.4749L193.23 84.4959L192.509 85.0186L192.481 85.0414L192.476 85.0491L192.471 85.0455Z" fill="#5BAAFF"/>
<path d="M192.47 85.0453C192.47 85.0453 211.083 100.049 224.485 108.444C225.271 104.644 219.139 97.4509 209.902 91.6132C203.475 87.552 197.102 85.1296 192.774 84.8187C192.573 84.9643 192.466 85.0461 192.466 85.0461L192.47 85.0453Z" fill="#A3CFFF"/>
<path d="M192.473 85.0434C192.473 85.0434 222.367 109.142 233.666 113.344C246.326 118.053 251.52 101.2 246.062 93.5967C239.167 83.9941 228.696 79.3247 218.716 77.6499C204.929 75.334 192.475 85.0409 192.475 85.0409L192.473 85.0434ZM194.681 84.9656C194.681 84.9656 214.551 73.8131 223.683 83.0113C228.492 87.8527 221.028 100.916 215.184 99.1615C209.97 97.5966 194.681 84.9656 194.681 84.9656Z" fill="url(#paint7_linear_2094_31111)"/>
</g>
<defs>
<linearGradient id="paint0_linear_2094_31111" x1="270.924" y1="119.031" x2="197.371" y2="111.566" gradientUnits="userSpaceOnUse">
<stop stop-color="#A3CFFF"/>
<stop offset="1" stop-color="#F8F9FD"/>
</linearGradient>
<linearGradient id="paint1_linear_2094_31111" x1="205.834" y1="76.5588" x2="129.298" y2="67.3211" gradientUnits="userSpaceOnUse">
<stop stop-color="#E7F2FF"/>
<stop offset="1" stop-color="#A3CFFF"/>
</linearGradient>
<linearGradient id="paint2_linear_2094_31111" x1="21.78" y1="133.008" x2="36.5444" y2="228.87" gradientUnits="userSpaceOnUse">
<stop stop-color="#A3CFFF"/>
<stop offset="1" stop-color="#E7F2FF"/>
</linearGradient>
<linearGradient id="paint3_linear_2094_31111" x1="73.578" y1="58.7779" x2="73.1943" y2="140.618" gradientUnits="userSpaceOnUse">
<stop stop-color="#A3CFFF"/>
<stop offset="1" stop-color="white"/>
</linearGradient>
<linearGradient id="paint4_linear_2094_31111" x1="110.184" y1="194.909" x2="125.82" y2="289.609" gradientUnits="userSpaceOnUse">
<stop stop-color="#A3CFFF"/>
<stop offset="1" stop-color="#E7F2FF"/>
</linearGradient>
<linearGradient id="paint5_linear_2094_31111" x1="162.101" y1="120.759" x2="163.458" y2="201.348" gradientUnits="userSpaceOnUse">
<stop stop-color="#A3CFFF"/>
<stop offset="1" stop-color="#DAEBFF"/>
</linearGradient>
<linearGradient id="paint6_linear_2094_31111" x1="159.659" y1="72.188" x2="84.7651" y2="234.678" gradientUnits="userSpaceOnUse">
<stop stop-color="#5BAAFF"/>
<stop offset="1" stop-color="#D4E8FF"/>
</linearGradient>
<linearGradient id="paint7_linear_2094_31111" x1="245.601" y1="108.359" x2="195.458" y2="103.637" gradientUnits="userSpaceOnUse">
<stop stop-color="#A3CFFF"/>
<stop offset="1" stop-color="#F4F7FE"/>
</linearGradient>
<clipPath id="clip0_2094_31111">
<rect width="300" height="300" fill="white"/>
</clipPath>
</defs>
</svg>
